<?xml version="1.0" standalone="no"?>
<!DOCTYPE svg PUBLIC "-//W3C//DTD SVG 20010904//EN"
 "http://www.w3.org/TR/2001/REC-SVG-20010904/DTD/svg10.dtd">
<svg version="1.0" xmlns="http://www.w3.org/2000/svg"
 width="972.000000pt" height="477.000000pt" viewBox="0 0 972.000000 477.000000"
 preserveAspectRatio="xMidYMid meet">

<g transform="translate(0.000000,477.000000) scale(0.100000,-0.100000)"
fill="#000000" stroke="none">
<path d="M7013 3011 c-122 -3 -224 -8 -226 -11 -5 -4 -11 -888 -8 -1068 l1
-52 728 2 727 3 63 29 c72 33 153 114 186 186 17 37 21 71 24 198 6 206 -14
474 -38 528 -46 105 -142 168 -281 184 -87 10 -790 11 -1176 1z m937 -314 c8
-4 26 -24 40 -44 24 -35 25 -42 25 -204 0 -154 -2 -170 -21 -196 -42 -57 -50
-58 -396 -58 -174 0 -318 2 -321 5 -3 3 -8 119 -12 258 l-7 254 338 -4 c187
-2 346 -7 354 -11z"/>
<path d="M1115 3002 c-29 -7 -30 -9 -30 -60 1 -28 2 -281 3 -561 l2 -509 158
-4 c86 -1 193 -2 238 0 l81 3 7 187 c4 102 9 189 12 192 3 3 196 4 428 3 l423
-2 7 76 c8 96 8 197 0 217 -5 14 -54 16 -440 16 l-434 0 0 65 c0 55 3 65 18
66 9 0 236 1 504 2 267 1 489 5 492 8 7 7 12 286 5 292 -8 8 -1443 16 -1474 9z"/>
<path d="M4826 2991 c-6 -9 -7 -242 -6 -853 l0 -268 118 0 c66 0 173 3 240 7
l122 6 2 186 3 186 144 3 c105 2 147 -1 159 -10 18 -16 114 -125 235 -270 l89
-106 294 0 c161 -1 296 3 298 7 3 4 -15 28 -40 52 -26 24 -106 110 -180 190
l-133 147 37 6 c57 9 155 60 185 96 36 43 71 112 91 181 14 46 15 68 6 130
-14 96 -38 145 -103 206 -63 59 -140 92 -247 104 -104 11 -1307 11 -1314 0z
m1084 -306 c58 -30 47 -110 -17 -127 -18 -5 -157 -7 -310 -6 l-278 3 -3 73 -3
72 291 0 c241 0 296 -3 320 -15z"/>
<path d="M3093 2965 c-122 -27 -189 -79 -236 -183 -18 -41 -22 -72 -26 -234
-3 -103 -4 -247 -1 -320 5 -120 8 -139 33 -190 36 -73 94 -123 177 -151 64
-21 77 -22 647 -25 512 -3 589 -1 645 13 127 33 189 83 232 189 20 48 21 68
20 356 0 290 -1 308 -22 360 -38 93 -97 144 -207 176 -53 15 -124 17 -630 20
-460 3 -582 1 -632 -11z m933 -301 c66 -49 69 -60 68 -238 -1 -189 -9 -213
-83 -253 -43 -22 -51 -23 -308 -23 -295 0 -315 4 -352 63 -20 33 -22 50 -24
199 -2 178 4 203 55 241 42 31 86 35 360 34 242 -2 258 -3 284 -23z"/>
</g>
</svg>
